<?xml version="1.0" encoding="utf-8"?>
<!-- Generator: Adobe Illustrator 22.1.0, SVG Export Plug-In . SVG Version: 6.00 Build 0)  -->
<svg version="1.1" id="Layer_1" xmlns:v="https://vecta.io/nano"
	 xmlns="http://www.w3.org/2000/svg" xmlns:xlink="http://www.w3.org/1999/xlink" x="0px" y="0px" viewBox="0 0 193 230"
	 style="enable-background:new 0 0 193 230;" xml:space="preserve">
<style type="text/css">
	.st0{opacity:0.2;fill:#34B196;}
	.st1{opacity:0.2;fill:#105E4E;}
</style>
<path class="st0" d="M139.4,173.6c-30.2,28.6-77.8,27.6-106.9-1.9l-2.1-2.2c-27.9-30.7-26.2-78.2,4-106.8
	C62.4,36.2,163.3,29,180,27.9c1.5-0.1,2.4-0.1,2.4-0.1s-0.1,0.9-0.3,2.4C180.2,46.8,167.4,147.1,139.4,173.6z"/>
<path class="st1" d="M182.1,30.3L16.3,187.1l-2.1-2.3L180,28c1.6-0.1,2.4-0.2,2.4-0.2S182.3,28.7,182.1,30.3z"/>
<path class="st1" d="M113.5,89.2c-1.5,3.5-3.1,6.3-3.6,6.1c-0.4-0.2,0.4-3.2,2-6.8l14.7-34.1c1.5-3.5,3.1-6.3,3.6-6.1
	c0.4,0.2-0.4,3.2-2,6.8L113.5,89.2z"/>
<path class="st1" d="M90.2,111.3c-1.5,3.5-3.1,6.3-3.6,6.1c-0.4-0.2,0.4-3.2,2-6.8l22.5-52.2c1.5-3.5,3.1-6.3,3.6-6.1
	c0.4,0.2-0.4,3.3-2,6.8L90.2,111.3z"/>
<path class="st1" d="M66.9,133.3c-1.5,3.5-3.1,6.3-3.6,6.1c-0.4-0.2,0.4-3.2,2-6.8l31.2-72.4c1.5-3.5,3.1-6.3,3.6-6.1
	c0.4,0.2-0.4,3.2-2,6.8L66.9,133.3z"/>
<path class="st1" d="M43.6,155.4c-1.5,3.5-3.1,6.3-3.6,6.1c-0.4-0.2,0.4-3.2,2-6.8l36.6-85.1c1.5-3.5,3.1-6.3,3.6-6.1
	c0.4,0.2-0.4,3.2-2,6.8L43.6,155.4z"/>
<path class="st1" d="M117.3,93.2c-3.6,1.3-6.4,2.8-6.3,3.2c0.2,0.5,3.3-0.3,6.9-1.6l34.9-12.8c3.6-1.3,6.4-2.8,6.3-3.2
	c-0.2-0.5-3.3,0.3-6.9,1.6L117.3,93.2z"/>
<path class="st1" d="M94,115.3c-3.6,1.3-6.4,2.8-6.3,3.2c0.2,0.4,3.3-0.3,6.9-1.6L148,97.3c3.6-1.3,6.4-2.8,6.3-3.2
	c-0.2-0.4-3.3,0.3-6.9,1.6L94,115.3z"/>
<path class="st1" d="M70.7,137.3c-3.6,1.3-6.4,2.8-6.3,3.2c0.2,0.5,3.3-0.3,6.9-1.6l74-27.2c3.6-1.3,6.4-2.8,6.3-3.2
	c-0.2-0.4-3.3,0.3-6.9,1.6L70.7,137.3z"/>
<path class="st1" d="M47.4,159.4c-3.6,1.3-6.4,2.8-6.3,3.2c0.2,0.4,3.2-0.3,6.9-1.6l86.9-31.9c3.6-1.3,6.4-2.8,6.3-3.2
	c-0.2-0.4-3.3,0.3-6.9,1.6L47.4,159.4z"/>
</svg>
