<svg id="Layer_1" data-name="Layer 1" xmlns="http://www.w3.org/2000/svg" viewBox="0 0 352.72 189.2"><defs><style>.cls-1{fill:#e99e05;}.cls-2{fill:#333;}.cls-3{fill:#303030;}.cls-4{fill:#2e2e2e;}.cls-5{fill:#2b2b2b;}.cls-6{fill:#292929;}.cls-7{fill:#262626;}.cls-8{fill:#242424;}.cls-9{fill:#212121;}.cls-10{fill:#1f1f1f;}.cls-11{fill:#1c1c1c;}.cls-12{fill:#1a1a1a;}.cls-13{fill:#171717;}.cls-14{fill:#141414;}.cls-15{fill:#121212;}.cls-16{fill:#0f0f0f;}.cls-17{fill:#0d0d0d;}.cls-18{fill:#0a0a0a;}.cls-19{fill:#080808;}.cls-20{fill:#050505;}.cls-21{fill:#030303;}.cls-22{fill:#231f20;}.cls-23,.cls-24{fill:#ffcb0a;}.cls-24{fill-rule:evenodd;}</style></defs><rect class="cls-1" x="5.61" y="6.73" width="265.96" height="91.23" rx="25.37"/><rect class="cls-1" x="5.45" y="6.54" width="265.96" height="91.23" rx="25.37"/><rect class="cls-1" x="5.29" y="6.35" width="265.96" height="91.23" rx="25.37"/><rect class="cls-1" x="5.13" y="6.15" width="265.96" height="91.23" rx="25.37"/><rect class="cls-1" x="4.97" y="5.96" width="265.96" height="91.23" rx="25.37"/><rect class="cls-1" x="4.81" y="5.77" width="265.96" height="91.23" rx="25.37"/><rect class="cls-1" x="4.65" y="5.58" width="265.96" height="91.23" rx="25.37"/><rect class="cls-1" x="4.49" y="5.39" width="265.96" height="91.23" rx="25.37"/><rect class="cls-1" x="4.33" y="5.19" width="265.96" height="91.23" rx="25.37"/><rect class="cls-1" x="4.17" y="5" width="265.96" height="91.23" rx="25.37"/><rect class="cls-1" x="4.01" y="4.81" width="265.96" height="91.23" rx="25.37"/><rect class="cls-1" x="3.85" y="4.62" width="265.96" height="91.23" rx="25.37"/><rect class="cls-1" x="3.69" y="4.42" width="265.96" height="91.23" rx="25.37"/><rect class="cls-1" x="3.53" y="4.23" width="265.96" height="91.23" rx="25.37"/><rect class="cls-1" x="3.37" y="4.04" width="265.96" height="91.23" rx="25.37"/><rect class="cls-1" x="3.21" y="3.85" width="265.96" height="91.23" rx="25.37"/><rect class="cls-1" x="3.05" y="3.65" width="265.96" height="91.23" rx="25.37"/><rect class="cls-1" x="2.88" y="3.46" width="265.96" height="91.23" rx="25.37"/><rect class="cls-1" x="2.72" y="3.27" width="265.96" height="91.23" rx="25.37"/><rect class="cls-1" x="2.56" y="3.08" width="265.96" height="91.23" rx="25.37"/><rect class="cls-1" x="2.4" y="2.88" width="265.96" height="91.23" rx="25.37"/><rect class="cls-1" x="2.24" y="2.69" width="265.96" height="91.23" rx="25.37"/><rect class="cls-1" x="2.08" y="2.5" width="265.96" height="91.23" rx="25.37"/><rect class="cls-1" x="1.92" y="2.31" width="265.96" height="91.23" rx="25.37"/><rect class="cls-1" x="1.76" y="2.12" width="265.96" height="91.23" rx="25.37"/><rect class="cls-1" x="1.6" y="1.92" width="265.96" height="91.23" rx="25.37"/><rect class="cls-1" x="1.44" y="1.73" width="265.96" height="91.23" rx="25.37"/><rect class="cls-1" x="1.28" y="1.54" width="265.96" height="91.23" rx="25.37"/><rect class="cls-1" x="1.12" y="1.35" width="265.96" height="91.23" rx="25.37"/><rect class="cls-1" x="0.96" y="1.15" width="265.96" height="91.23" rx="25.37"/><rect class="cls-1" x="0.8" y="0.96" width="265.96" height="91.23" rx="25.37"/><rect class="cls-1" x="0.64" y="0.77" width="265.96" height="91.23" rx="25.37"/><rect class="cls-1" x="0.48" y="0.58" width="265.96" height="91.23" rx="25.37"/><rect class="cls-1" x="0.32" y="0.38" width="265.96" height="91.23" rx="25.37"/><rect class="cls-1" x="0.16" y="0.19" width="265.96" height="91.23" rx="25.37"/><rect class="cls-1" width="265.96" height="91.23" rx="25.37"/><rect class="cls-2" x="86.76" y="97.96" width="265.96" height="91.23" rx="25.37"/><rect class="cls-3" x="86.48" y="97.63" width="265.96" height="91.23" rx="25.37"/><rect class="cls-4" x="86.2" y="97.29" width="265.96" height="91.23" rx="25.37"/><rect class="cls-5" x="85.92" y="96.95" width="265.96" height="91.23" rx="25.37"/><rect class="cls-6" x="85.64" y="96.62" width="265.96" height="91.23" rx="25.37"/><rect class="cls-7" x="85.36" y="96.28" width="265.96" height="91.23" rx="25.37"/><rect class="cls-8" x="85.08" y="95.94" width="265.96" height="91.23" rx="25.37"/><rect class="cls-9" x="84.8" y="95.61" width="265.96" height="91.23" rx="25.37"/><rect class="cls-10" x="84.52" y="95.27" width="265.96" height="91.23" rx="25.37"/><rect class="cls-11" x="84.24" y="94.93" width="265.96" height="91.23" rx="25.37"/><rect class="cls-12" x="83.96" y="94.6" width="265.96" height="91.23" rx="25.37"/><rect class="cls-13" x="83.68" y="94.26" width="265.96" height="91.23" rx="25.37"/><rect class="cls-14" x="83.4" y="93.92" width="265.96" height="91.23" rx="25.37"/><rect class="cls-15" x="83.11" y="93.59" width="265.96" height="91.23" rx="25.37"/><rect class="cls-16" x="82.83" y="93.25" width="265.96" height="91.23" rx="25.37"/><rect class="cls-17" x="82.55" y="92.92" width="265.96" height="91.23" rx="25.37"/><rect class="cls-18" x="82.27" y="92.58" width="265.96" height="91.23" rx="25.37"/><rect class="cls-19" x="81.99" y="92.24" width="265.96" height="91.23" rx="25.37"/><rect class="cls-20" x="81.71" y="91.91" width="265.96" height="91.23" rx="25.37"/><rect class="cls-21" x="81.43" y="91.57" width="265.96" height="91.23" rx="25.37"/><rect x="81.15" y="91.23" width="265.96" height="91.23" rx="25.37"/><rect class="cls-22" x="81.15" y="91.23" width="265.96" height="91.23" rx="25.37"/><rect class="cls-23" width="265.96" height="91.23" rx="25.37"/><path class="cls-23" d="M119.69,269.47V211.83H131l23.59,38.49V211.83h10.81v57.64H153.73L130.5,231.88v37.59Z" transform="translate(-23.64 -105.4)"/><path class="cls-23" d="M177.72,269.47V211.83h42.73v9.75h-31.1v12.78h28.94v9.71H189.35v15.69h32.2v9.71Z" transform="translate(-23.64 -105.4)"/><path class="cls-23" d="M309,250.71l11.32-1.1q1,5.7,4.15,8.38a12.55,12.55,0,0,0,8.43,2.67q5.63,0,8.48-2.38a7.07,7.07,0,0,0,2.85-5.56,5.26,5.26,0,0,0-1.2-3.48,9.6,9.6,0,0,0-4.19-2.5q-2-.7-9.32-2.51-9.36-2.32-13.13-5.7a15.13,15.13,0,0,1-2.81-19.84,15.69,15.69,0,0,1,7.2-5.84,28.94,28.94,0,0,1,11.34-2q10.84,0,16.33,4.76a16.75,16.75,0,0,1,5.76,12.69l-11.63.52q-.75-4.45-3.21-6.39c-1.64-1.3-4.09-2-7.37-2s-6,.7-7.94,2.09a4.2,4.2,0,0,0-1.85,3.57,4.43,4.43,0,0,0,1.73,3.5q2.2,1.85,10.69,3.85a56.28,56.28,0,0,1,12.56,4.15,16.11,16.11,0,0,1,6.37,5.86A18.15,18.15,0,0,1,353.1,262a16.55,16.55,0,0,1-7.78,6.43,32.72,32.72,0,0,1-12.54,2.1q-10.93,0-16.79-5.05T309,250.71Z" transform="translate(-23.64 -105.4)"/><path class="cls-24" d="M274.1,234.54c.3-.3.31-.5,0-.8q-3.81-3.8-7.6-7.6c-.27-.27-.47-.29-.75,0l-7.64,7.65c-.1.1-.23.2-.22.37s.17.29.3.41c2.5,2.51,5,5,7.5,7.53.32.31.53.33.85,0C269.05,239.56,271.58,237.05,274.1,234.54Z" transform="translate(-23.64 -105.4)"/><path class="cls-24" d="M252.57,256.05l7.12-7.11c.57-.58.57-.58,0-1.17l-13-13c-.62-.63-.62-.63,0-1.25q6.53-6.52,13.07-13c.41-.41.41-.65,0-1.06-2.38-2.37-4.73-4.76-7.1-7.14-.58-.58-.58-.58-1.15,0l-21.3,21.3c-.58.57-.58.58,0,1.16l15.61,15.61,5.74,5.73a1,1,0,0,0,.49.38C252.28,256.42,252.41,256.21,252.57,256.05Z" transform="translate(-23.64 -105.4)"/><path class="cls-24" d="M272.63,219.33c-.61.61-.61.61,0,1.21l13.05,13.05c.54.54.55.55,0,1.08l-5.21,5.21q-4,4-8,8c-.29.29-.52.53-.11.93,2.49,2.47,5,4.95,7.44,7.43a.6.6,0,0,0,.38.24c.22,0,.35-.22.49-.36q10.71-10.71,21.43-21.41c.4-.4.44-.64,0-1.06q-10.72-10.7-21.41-21.42c-.4-.4-.63-.36-1,0C277.38,214.6,275,217,272.63,219.33Z" transform="translate(-23.64 -105.4)"/><path class="cls-24" d="M266.52,270.28l7.47-7.47c.25-.25.3-.44,0-.71l-7.51-7.51c-.28-.29-.49-.26-.76,0q-3.72,3.75-7.46,7.48a.56.56,0,0,0-.25.41,2.42,2.42,0,0,0,.22.28l7.51,7.52C266,270.58,266.25,270.55,266.52,270.28Z" transform="translate(-23.64 -105.4)"/><path class="cls-22" d="M68.39,118H93.3a72,72,0,0,1,11,.62,16.23,16.23,0,0,1,6.5,2.57,16,16,0,0,1,4.79,5.21,14.17,14.17,0,0,1,1.91,7.29,14.79,14.79,0,0,1-8.76,13.52,16.38,16.38,0,0,1,8.76,5.65,15,15,0,0,1,3.06,9.39,18.49,18.49,0,0,1-2,8.27,16.5,16.5,0,0,1-5.4,6.42,17.73,17.73,0,0,1-8.43,2.95q-3.15.35-15.18.43H68.39ZM81,128.34v14.41h8.25q7.35,0,9.14-.22a8.31,8.31,0,0,0,5.08-2.23,6.58,6.58,0,0,0,1.85-4.87,6.79,6.79,0,0,0-1.6-4.69A7.16,7.16,0,0,0,99,128.55c-1.24-.14-4.83-.21-10.75-.21Zm0,24.78v16.66H92.62a57.85,57.85,0,0,0,8.63-.38,7.8,7.8,0,0,0,4.57-2.49,7.68,7.68,0,0,0,1.76-5.29,8.1,8.1,0,0,0-1.36-4.76,7.61,7.61,0,0,0-3.93-2.85q-2.57-.9-11.16-.89Z" transform="translate(-23.64 -105.4)"/><path class="cls-22" d="M128,160l12.24-1.19q1.11,6.16,4.48,9.06t9.12,2.89c4,0,7.11-.86,9.16-2.57a7.64,7.64,0,0,0,3.08-6,5.68,5.68,0,0,0-1.29-3.76,10.52,10.52,0,0,0-4.53-2.7q-2.21-.77-10.07-2.72-10.12-2.51-14.2-6.16a16.21,16.21,0,0,1-5.74-12.54,16,16,0,0,1,2.7-8.91,16.93,16.93,0,0,1,7.78-6.31A31,31,0,0,1,153,116.9q11.73,0,17.66,5.15t6.23,13.72l-12.58.56c-.54-3.2-1.69-5.51-3.47-6.91s-4.42-2.1-8-2.1-6.51.75-8.58,2.25a4.54,4.54,0,0,0-2,3.87,4.78,4.78,0,0,0,1.87,3.78q2.38,2,11.56,4.17t13.58,4.48a17.5,17.5,0,0,1,6.89,6.33,19.6,19.6,0,0,1-.49,20,17.82,17.82,0,0,1-8.42,7,35.18,35.18,0,0,1-13.56,2.27q-11.81,0-18.15-5.46T128,160Z" transform="translate(-23.64 -105.4)"/><path class="cls-22" d="M229.15,157.37l12.2,3.87q-2.81,10.2-9.33,15.15t-16.56,5q-12.4,0-20.4-8.48t-8-23.19q0-15.55,8-24.16t21.13-8.61q11.43,0,18.57,6.76,4.26,4,6.38,11.48l-12.45,3a12.88,12.88,0,0,0-13.14-10.45,14.15,14.15,0,0,0-11.24,5q-4.32,5-4.32,16.11,0,11.82,4.25,16.83a13.8,13.8,0,0,0,11.06,5A12.6,12.6,0,0,0,224,167.4Q227.58,164.21,229.15,157.37Z" transform="translate(-23.64 -105.4)"/></svg>